<svg xmlns="http://www.w3.org/2000/svg" xmlns:xlink="http://www.w3.org/1999/xlink" preserveAspectRatio="xMidYMid" width="68" height="68" viewBox="0 0 68 68">
  <defs>
    <style>
      .cls-1 {
        fill: #28c8c6;
        fill-rule: evenodd;
      }
    </style>
  </defs>
  <path d="M58.036,58.036 C51.425,64.648 43.335,68.000 33.992,68.000 C24.660,68.000 16.575,64.648 9.964,58.037 C3.352,51.425 0.000,43.335 0.000,33.993 C0.000,24.660 3.352,16.575 9.964,9.964 C16.575,3.352 24.660,0.000 33.992,0.000 C43.335,0.000 51.425,3.352 58.036,9.964 C64.648,16.575 68.000,24.660 68.000,33.993 C68.000,43.335 64.648,51.425 58.036,58.036 ZM55.483,12.517 L55.482,12.517 C49.490,6.525 42.461,3.612 33.992,3.612 C25.535,3.612 18.510,6.525 12.517,12.517 C6.525,18.510 3.611,25.535 3.611,33.993 C3.611,42.460 6.525,49.490 12.517,55.483 C18.510,61.475 25.535,64.389 33.992,64.389 C42.460,64.389 49.490,61.475 55.483,55.483 C61.475,49.490 64.389,42.460 64.389,33.993 C64.389,25.535 61.475,18.510 55.483,12.517 ZM32.112,11.707 C32.723,11.105 33.330,10.854 33.932,10.955 C34.544,10.844 35.156,11.095 35.768,11.707 L53.359,52.411 L22.315,34.369 L32.112,11.707 ZM14.521,52.411 L21.984,35.181 L33.090,41.637 L14.521,52.411 Z" class="cls-1"/>
</svg>
