<svg xmlns="http://www.w3.org/2000/svg" xmlns:xlink="http://www.w3.org/1999/xlink" preserveAspectRatio="xMidYMid" width="21" height="21.062" viewBox="0 0 21 21.062">
  <defs>
    <style>
      .cls-1 {
        fill: #28c8c6;
        fill-rule: evenodd;
      }
    </style>
  </defs>
  <path d="M10.500,21.064 C4.701,21.064 0.000,16.347 0.000,10.527 C0.000,4.708 4.701,-0.010 10.500,-0.010 C16.299,-0.010 21.000,4.708 21.000,10.527 C21.000,16.347 16.299,21.064 10.500,21.064 ZM10.500,1.966 C5.788,1.966 1.969,5.799 1.969,10.527 C1.969,15.255 5.788,19.088 10.500,19.088 C15.212,19.088 19.031,15.255 19.031,10.527 C19.031,5.799 15.212,1.966 10.500,1.966 ZM14.185,12.176 L11.232,15.469 L11.229,15.466 C11.049,15.667 10.790,15.795 10.500,15.795 C10.210,15.795 9.951,15.667 9.771,15.466 L9.768,15.469 L6.815,12.176 L6.818,12.173 C6.661,11.999 6.563,11.769 6.563,11.515 C6.563,10.969 7.003,10.527 7.547,10.527 C7.837,10.527 8.096,10.656 8.276,10.857 L8.279,10.854 L9.516,12.233 L9.516,6.247 C9.516,5.701 9.956,5.259 10.500,5.259 C11.044,5.259 11.484,5.701 11.484,6.247 L11.484,12.233 L12.721,10.854 L12.724,10.857 C12.904,10.656 13.163,10.527 13.453,10.527 C13.997,10.527 14.437,10.969 14.437,11.515 C14.437,11.769 14.339,11.999 14.182,12.173 L14.185,12.176 Z" class="cls-1"/>
</svg>
