<svg xmlns="http://www.w3.org/2000/svg" xmlns:xlink="http://www.w3.org/1999/xlink" preserveAspectRatio="xMidYMid" width="55" height="48" viewBox="0 0 55 48">
  <defs>
    <style>
      .cls-1 {
        fill: #fff;
        fill-rule: evenodd;
      }
    </style>
  </defs>
  <path d="M52.422,48.000 L2.578,48.000 C1.154,48.000 0.000,46.848 0.000,45.428 L0.000,2.571 C0.000,1.151 1.154,0.000 2.578,0.000 L52.422,0.000 C53.846,0.000 55.000,1.151 55.000,2.571 L55.000,45.428 C55.000,46.848 53.846,48.000 52.422,48.000 ZM5.156,2.571 C3.732,2.571 2.578,3.723 2.578,5.143 C2.578,6.563 3.732,7.714 5.156,7.714 C6.580,7.714 7.734,6.563 7.734,5.143 C7.734,3.723 6.580,2.571 5.156,2.571 ZM12.891,2.571 C11.467,2.571 10.312,3.723 10.312,5.143 C10.312,6.563 11.467,7.714 12.891,7.714 C14.314,7.714 15.469,6.563 15.469,5.143 C15.469,3.723 14.314,2.571 12.891,2.571 ZM20.625,2.571 C19.201,2.571 18.047,3.723 18.047,5.143 C18.047,6.563 19.201,7.714 20.625,7.714 C22.049,7.714 23.203,6.563 23.203,5.143 C23.203,3.723 22.049,2.571 20.625,2.571 ZM52.422,10.286 L49.844,10.286 L5.156,10.286 L2.578,10.286 L2.578,45.428 L52.422,45.428 L52.422,10.286 Z" class="cls-1"/>
</svg>
